HIERARCHY
ROOT Hips
{
  OFFSET 5.84602e-005 68.8428 3.50346
  CHANNELS 6 Xposition Yposition Zposition Zrotation Xrotation Yrotation
  JOINT Spine
  {
    OFFSET 0 8.597 -4.6522
    CHANNELS 3 Zrotation Xrotation Yrotation
    JOINT Spine1
    {
      OFFSET 0 7.8454 0.4098
      CHANNELS 3 Zrotation Xrotation Yrotation
      JOINT Spine2
      {
        OFFSET 0 9.7078 -2.1609
        CHANNELS 3 Zrotation Xrotation Yrotation
        JOINT Neck
        {
          OFFSET 0 21.8761 -0.4549
          CHANNELS 3 Zrotation Xrotation Yrotation
          JOINT Head
          {
            OFFSET 0 12.3537 3.3602
            CHANNELS 3 Zrotation Xrotation Yrotation
            End Site
            {
              OFFSET 0.0001 18.9506 0.5657
            }
          }
        }
        JOINT LeftShoulder
        {
          OFFSET 2.2086 21.1115 7.2329
          CHANNELS 3 Zrotation Xrotation Yrotation
          JOINT LeftArm
          {
            OFFSET 13.1193 3.0282 -4.8998
            CHANNELS 3 Zrotation Xrotation Yrotation
            JOINT LeftForeArm
            {
              OFFSET 27.4081 -0.0973053 -0.2375
              CHANNELS 3 Zrotation Xrotation Yrotation
              JOINT LeftHand
              {
                OFFSET 22.8641 0.0662994 -0.1369
                CHANNELS 3 Zrotation Xrotation Yrotation
                JOINT LeftHandIndex1
                {
                  OFFSET 8.8614 0.775009 2.4612
                  CHANNELS 3 Zrotation Xrotation Yrotation
                  JOINT LeftHandIndex2
                  {
                    OFFSET 3.3146 -0.808304 0.5841
                    CHANNELS 3 Zrotation Xrotation Yrotation
                    JOINT LeftHandIndex3
                    {
                      OFFSET 2.2628 -0.552002 0.3989
                      CHANNELS 3 Zrotation Xrotation Yrotation
                      End Site
                      {
                        OFFSET 1.6102 -0.4807 0.2612
                      }
                    }
                  }
                }
                JOINT LeftHandMiddle1
                {
                  OFFSET 8.9937 0.895004 0.2143
                  CHANNELS 3 Zrotation Xrotation Yrotation
                  JOINT LeftHandMiddle2
                  {
                    OFFSET 4.0984 0.0113983 -0.0242
                    CHANNELS 3 Zrotation Xrotation Yrotation
                    JOINT LeftHandMiddle3
                    {
                      OFFSET 2.2716 0.00689697 -0.0138001
                      CHANNELS 3 Zrotation Xrotation Yrotation
                      End Site
                      {
                        OFFSET 2.0404 -0.1441 0.0027
                      }
                    }
                  }
                }
                JOINT LeftHandRing1
                {
                  OFFSET 8.5234 0.597198 -2.0164
                  CHANNELS 3 Zrotation Xrotation Yrotation
                  JOINT LeftHandRing2
                  {
                    OFFSET 3.7188 -0.188293 -0.2328
                    CHANNELS 3 Zrotation Xrotation Yrotation
                    JOINT LeftHandRing3
                    {
                      OFFSET 2.1191 -0.106598 -0.1332
                      CHANNELS 3 Zrotation Xrotation Yrotation
                      End Site
                      {
                        OFFSET 1.8737 -0.2304 -0.0886
                      }
                    }
                  }
                }
                JOINT LeftHandPinky1
                {
                  OFFSET 7.9094 -0.601089 -3.4825
                  CHANNELS 3 Zrotation Xrotation Yrotation
                  JOINT LeftHandPinky2
                  {
                    OFFSET 2.2874 -0.477005 -0.6314
                    CHANNELS 3 Zrotation Xrotation Yrotation
                    JOINT LeftHandPinky3
                    {
                      OFFSET 1.6774 -0.349396 -0.4633
                      CHANNELS 3 Zrotation Xrotation Yrotation
                      End Site
                      {
                        OFFSET 1.4888 -0.4091 -0.3416
                      }
                    }
                  }
                }
                JOINT LeftHandThumb1
                {
                  OFFSET 1.833 -1.3875 1.3896
                  CHANNELS 3 Zrotation Xrotation Yrotation
                  JOINT LeftHandThumb2
                  {
                    OFFSET 3.4129 -1.121 2.5732
                    CHANNELS 3 Zrotation Xrotation Yrotation
                    JOINT LeftHandThumb3
                    {
                      OFFSET 2.2474 -0.804199 1.6192
                      CHANNELS 3 Zrotation Xrotation Yrotation
                      End Site
                      {
                        OFFSET 1.6527 -0.5689 1.1317
                      }
                    }
                  }
                }
              }
            }
          }
        }
        JOINT RightShoulder
        {
          OFFSET -2.2086 21.1115 7.2329
          CHANNELS 3 Zrotation Xrotation Yrotation
          JOINT RightArm
          {
            OFFSET -13.1216 3.0287 -4.9007
            CHANNELS 3 Zrotation Xrotation Yrotation
            JOINT RightForeArm
            {
              OFFSET -27.4081 -0.0973053 -0.2375
              CHANNELS 3 Zrotation Xrotation Yrotation
              JOINT RightHand
              {
                OFFSET -22.8641 0.0664063 -0.1369
                CHANNELS 3 Zrotation Xrotation Yrotation
                JOINT RightHandIndex1
                {
                  OFFSET -8.8614 0.774994 2.4612
                  CHANNELS 3 Zrotation Xrotation Yrotation
                  JOINT RightHandIndex2
                  {
                    OFFSET -3.3146 -0.808304 0.5841
                    CHANNELS 3 Zrotation Xrotation Yrotation
                    JOINT RightHandIndex3
                    {
                      OFFSET -2.2628 -0.552002 0.3989
                      CHANNELS 3 Zrotation Xrotation Yrotation
                      End Site
                      {
                        OFFSET -1.6102 -0.4807 0.2612
                      }
                    }
                  }
                }
                JOINT RightHandMiddle1
                {
                  OFFSET -8.9937 0.894989 0.2143
                  CHANNELS 3 Zrotation Xrotation Yrotation
                  JOINT RightHandMiddle2
                  {
                    OFFSET -4.0984 0.0113983 -0.0242
                    CHANNELS 3 Zrotation Xrotation Yrotation
                    JOINT RightHandMiddle3
                    {
                      OFFSET -2.2716 0.00691223 -0.0138001
                      CHANNELS 3 Zrotation Xrotation Yrotation
                      End Site
                      {
                        OFFSET -2.0404 -0.1441 0.0027
                      }
                    }
                  }
                }
                JOINT RightHandRing1
                {
                  OFFSET -8.5234 0.597198 -2.0164
                  CHANNELS 3 Zrotation Xrotation Yrotation
                  JOINT RightHandRing2
                  {
                    OFFSET -3.7188 -0.188309 -0.2328
                    CHANNELS 3 Zrotation Xrotation Yrotation
                    JOINT RightHandRing3
                    {
                      OFFSET -2.1191 -0.106598 -0.1332
                      CHANNELS 3 Zrotation Xrotation Yrotation
                      End Site
                      {
                        OFFSET -1.8737 -0.2304 -0.0886
                      }
                    }
                  }
                }
                JOINT RightHandPinky1
                {
                  OFFSET -7.9094 -0.601105 -3.4825
                  CHANNELS 3 Zrotation Xrotation Yrotation
                  JOINT RightHandPinky2
                  {
                    OFFSET -2.2874 -0.477005 -0.6314
                    CHANNELS 3 Zrotation Xrotation Yrotation
                    JOINT RightHandPinky3
                    {
                      OFFSET -1.6774 -0.349396 -0.4633
                      CHANNELS 3 Zrotation Xrotation Yrotation
                      End Site
                      {
                        OFFSET -1.4888 -0.4091 -0.3416
                      }
                    }
                  }
                }
                JOINT RightHandThumb1
                {
                  OFFSET -1.833 -1.38751 1.3896
                  CHANNELS 3 Zrotation Xrotation Yrotation
                  JOINT RightHandThumb2
                  {
                    OFFSET -3.41299 -1.12099 2.5732
                    CHANNELS 3 Zrotation Xrotation Yrotation
                    JOINT RightHandThumb3
                    {
                      OFFSET -2.24741 -0.804108 1.6192
                      CHANNELS 3 Zrotation Xrotation Yrotation
                      End Site
                      {
                        OFFSET -1.6527 -0.5689 1.1317
                      }
                    }
                  }
                }
              }
            }
          }
        }
      }
    }
  }
  JOINT RightUpLeg
  {
    OFFSET -9.1966 3.8861 -0.7581
    CHANNELS 3 Zrotation Xrotation Yrotation
    JOINT RightLeg
    {
      OFFSET -0.7359 -41.0265 0
      CHANNELS 3 Zrotation Xrotation Yrotation
      JOINT RightFoot
      {
        OFFSET 0 -40.2855 0
        CHANNELS 3 Zrotation Xrotation Yrotation
        JOINT RightToeBase
        {
          OFFSET 0 -5.6122 11.7359
          CHANNELS 3 Zrotation Xrotation Yrotation
          End Site
          {
            OFFSET 0 0 7.8731
          }
        }
      }
    }
  }
  JOINT LeftUpLeg
  {
    OFFSET 9.1965 3.8864 -0.7581
    CHANNELS 3 Zrotation Xrotation Yrotation
    JOINT LeftLeg
    {
      OFFSET 0.7359 -41.0268 0
      CHANNELS 3 Zrotation Xrotation Yrotation
      JOINT LeftFoot
      {
        OFFSET 0 -40.2855 0
        CHANNELS 3 Zrotation Xrotation Yrotation
        JOINT LeftToeBase
        {
          OFFSET 0 -5.6122 11.7359
          CHANNELS 3 Zrotation Xrotation Yrotation
          End Site
          {
            OFFSET 0 0 7.8731
          }
        }
      }
    }
  }
}
MOTION
Frames:	4
Frame Time:	0.0333333
-2.01517 89.9317 -3.84456 180 -6.72216 -7.01669e-015 -0.0393067 2.3895 -0.276901 -0.067131 4.77912 -0.552882 -0.067131 4.77912 -0.552881 -5.67382e-007 48.9963 2.27913e-006 3.01976e-008 -81.0673 3.40089e-008 -16.9574 -1.87384 10.852 0.241989 2.38759 -72.8134 -17.5863 -7.50181 -49.1539 -37.8438 -33.9056 -39.5378 -6.36111e-015 -1.27222e-014 -1.59028e-015 -6.36111e-015 -1.59028e-014 7.95139e-016 -1.90833e-014 -1.11319e-014 -1.59028e-015 -6.36111e-015 -1.27222e-014 -1.59028e-015 -0.0145939 -9.30077e-005 -1.2006e-006 1.76407e-006 -7.29627e-007 6.05628e-007 -6.36111e-015 -1.27222e-014 -1.59028e-015 -0.0187445 -0.00117144 5.98938e-005 -6.36111e-015 -3.18055e-015 -1.59028e-015 -6.36111e-015 -1.27222e-014 -1.59028e-015 -0.0121992 -0.00322993 0.000670774 9.54166e-015 0 7.95139e-016 -6.36111e-015 -1.27222e-014 -1.59028e-015 -6.36111e-015 -1.59028e-014 7.95139e-016 -1.90833e-014 -1.11319e-014 -1.59028e-015 17.1201 -2.39871 -12.0776 -0.276238 2.39757 72.8491 17.9441 -7.16865 50.8886 37.4657 -34.3404 37.8437 -2.27922e-006 2.11663e-008 -2.06963e-007 -2.27922e-006 2.11663e-008 -2.06963e-007 -2.27922e-006 2.11663e-008 -2.06963e-007 -2.27922e-006 2.11663e-008 -2.06963e-007 0.014992 -8.39566e-005 3.85697e-006 -2.27933e-006 2.11399e-008 -2.06965e-007 -2.27922e-006 2.11663e-008 -2.06963e-007 0.0190309 -0.00119021 -5.93743e-005 -2.27935e-006 2.11387e-008 -2.06943e-007 -2.27922e-006 2.11663e-008 -2.06963e-007 0.0122168 -0.00323598 -0.000677207 -2.27931e-006 2.11525e-008 -2.06897e-007 -2.27922e-006 2.11663e-008 -2.06963e-007 -2.27922e-006 2.11663e-008 -2.06963e-007 -2.27922e-006 2.11663e-008 -2.06963e-007 -41.5602 -67.469 -17.3267 98.8426 33.9632 -84.6012 -35.2208 45.2102 37.9174 2.95368e-006 -9.75472e-007 -2.11387e-006 38.6677 -57.0508 20.9948 -87.024 24.0185 78.4747 41.5918 43.3645 -39.8355 4.46601e-006 1.02464e-006 1.90737e-006 
-1.94506 89.8412 -3.71817 180 -6.37472 -7.01671e-015 -0.0378131 2.14196 -0.277269 -0.0653134 4.28407 -0.553703 -0.0653135 4.28407 -0.553703 8.5327e-006 48.9964 -1.46796e-005 -4.34234e-007 -79.8789 -3.54608e-007 -17.2224 -1.23455 10.84 0.241991 2.38759 -72.8134 -17.3954 -7.72026 -48.3964 -38.3943 -33.5189 -39.8226 2.2986e-006 4.89838e-008 2.08413e-007 2.2986e-006 4.89838e-008 2.08413e-007 2.2986e-006 4.89838e-008 2.08413e-007 2.2986e-006 4.89838e-008 2.08413e-007 -0.0146292 -7.81117e-005 -2.39736e-006 4.06314e-006 -6.86799e-007 8.21085e-007 2.2986e-006 4.89838e-008 2.08413e-007 -0.0187426 -0.00117291 5.85724e-005 3.09327e-006 -3.01746e-006 2.16774e-006 2.2986e-006 4.89838e-008 2.08413e-007 -0.0122377 -0.00323905 0.00067489 2.29869e-006 4.8968e-008 2.0835e-007 2.2986e-006 4.89838e-008 2.08413e-007 2.2986e-006 4.89838e-008 2.08413e-007 2.2986e-006 4.89838e-008 2.08413e-007 17.3754 -1.76121 -11.9911 -0.276237 2.39757 72.8491 17.7393 -7.41697 50.0376 38.0608 -33.9106 38.1735 -3.75955e-006 -7.70322e-007 -7.16769e-007 3.18055e-015 0 2.38542e-015 -2.27924e-006 2.22444e-008 -2.09264e-007 -3.75955e-006 -7.70322e-007 -7.16769e-007 0.0149859 -8.59363e-005 3.70042e-006 -7.97644e-007 8.14842e-007 2.98136e-007 -3.75955e-006 -7.70322e-007 -7.16769e-007 0.0189706 -0.00119114 -6.34474e-005 -2.27937e-006 2.22165e-008 -2.09243e-007 -3.75955e-006 -7.70322e-007 -7.16769e-007 0.01228 -0.00325321 -0.000675367 -2.27933e-006 2.22304e-008 -2.09197e-007 -3.75955e-006 -7.70322e-007 -7.16769e-007 3.18055e-015 0 2.38542e-015 -2.27924e-006 2.22444e-008 -2.09264e-007 -41.6027 -67.728 -17.3447 98.8307 33.9639 -84.5877 -34.9803 45.0666 37.6851 -1.74914e-006 1.93667e-007 -1.82903e-006 38.9874 -57.4433 20.9923 -87.0109 24.0181 78.4517 40.9909 43.3518 -39.4995 1.48938e-006 3.40366e-007 6.34868e-007 
-1.88246 89.7602 -3.6055 180 -6.06378 -7.01671e-015 -0.0364757 1.92044 -0.277569 -0.0636897 3.84105 -0.554381 -0.0636897 3.84105 -0.554381 1.0517e-005 48.9964 -1.77258e-005 -6.80962e-007 -78.8155 -9.69925e-007 -17.459 -0.663241 10.8318 0.241989 2.38759 -72.8134 -17.2224 -7.91306 -47.7183 -38.8821 -33.1713 -40.0719 2.2985e-006 4.96658e-008 2.1011e-007 4.38689e-006 8.07651e-007 2.71872e-006 2.2985e-006 4.96657e-008 2.1011e-007 2.2985e-006 4.96658e-008 2.1011e-007 -0.0146201 -9.17509e-005 3.5211e-006 2.29859e-006 4.96394e-008 2.10115e-007 2.2985e-006 4.96658e-008 2.1011e-007 -0.0187668 -0.00117366 5.91097e-005 2.29862e-006 4.96374e-008 2.10094e-007 2.2985e-006 4.96658e-008 2.1011e-007 -0.0122563 -0.00324336 0.00067542 5.33711e-007 7.90535e-007 -4.08645e-007 2.2985e-006 4.96658e-008 2.1011e-007 4.38689e-006 8.07651e-007 2.71872e-006 2.2985e-006 4.96657e-008 2.1011e-007 17.6027 -1.19123 -11.9163 -0.27624 2.39757 72.849 17.5531 -7.63597 49.2754 38.5874 -33.5238 38.462 -1.24529e-006 -3.72838e-007 1.034e-006 -5.59257e-006 4.42325e-007 -1.66786e-006 -6.36111e-015 -1.59028e-015 -2.38542e-015 -1.24529e-006 -3.72838e-007 1.034e-006 0.015021 -8.57306e-005 -7.94882e-008 -3.18055e-015 -1.59028e-015 -0 -1.24529e-006 -3.72838e-007 1.034e-006 0.019013 -0.00119067 -6.14277e-005 9.54166e-015 0 7.95139e-016 -1.24529e-006 -3.72838e-007 1.034e-006 0.0122498 -0.00324199 -0.000679148 3.18055e-015 -6.36111e-015 -2.38542e-015 -1.24529e-006 -3.72838e-007 1.034e-006 -5.59257e-006 4.42325e-007 -1.66786e-006 -6.36111e-015 -1.59028e-015 -2.38542e-015 -41.6414 -67.9593 -17.3617 98.82 33.9647 -84.5756 -34.7668 44.9378 37.4788 -3.18055e-015 0 9.54166e-015 39.2763 -57.794 20.9937 -86.9993 24.0178 78.4313 40.4542 43.338 -39.1994 -6.78691e-007 2.98002e-006 8.44796e-007 
-1.81987 89.679 -3.49297 180 -5.75291 -7.01671e-015 -0.0351363 1.69861 -0.277851 -0.062068 3.39737 -0.555024 -0.0620681 3.39738 -0.555024 1.39689e-006 48.9962 1.98983e-006 -7.61689e-007 -77.7506 -8.07226e-007 -17.6957 -0.0917282 10.826 0.241985 2.38759 -72.8134 -17.0469 -8.10394 -47.0388 -39.3663 -32.8218 -40.3168 1.04331e-006 3.79191e-007 1.2551e-006 3.34173e-006 4.29528e-007 1.46689e-006 2.11789e-007 -7.08046e-007 -2.29842e-006 1.04331e-006 3.79191e-007 1.2551e-006 -0.0146135 -9.18359e-005 -2.22353e-007 1.00527e-006 -3.75559e-006 -3.53297e-007 1.04331e-006 3.79191e-007 1.2551e-006 -0.018728 -0.00117461 5.41576e-005 2.11774e-007 -7.0767e-007 -2.29853e-006 1.04331e-006 3.79191e-007 1.2551e-006 -0.012324 -0.00325729 0.000679319 2.11725e-007 -7.07799e-007 -2.2985e-006 1.04331e-006 3.79191e-007 1.2551e-006 3.34173e-006 4.29528e-007 1.46689e-006 2.11789e-007 -7.08046e-007 -2.29842e-006 17.8293 -0.620764 -11.8437 -0.276238 2.39757 72.8491 17.3637 -7.85266 48.5116 39.1097 -33.1347 38.745 -4.5587e-006 4.81073e-008 -4.26587e-007 4.77199e-006 7.19958e-007 -1.85276e-006 -2.27935e-006 2.40536e-008 -2.13293e-007 -4.5587e-006 4.81073e-008 -4.26587e-007 0.0150173 -9.2228e-005 3.27801e-007 -2.27945e-006 2.40263e-008 -2.13295e-007 -4.5587e-006 4.81073e-008 -4.26587e-007 0.01902 -0.00118462 -5.566e-005 -2.27948e-006 2.40251e-008 -2.13273e-007 -4.5587e-006 4.81073e-008 -4.26587e-007 0.0122519 -0.00324891 -0.000673226 -2.27944e-006 2.40392e-008 -2.13227e-007 -4.5587e-006 4.81073e-008 -4.26587e-007 4.77199e-006 7.19958e-007 -1.85276e-006 -2.27935e-006 2.40536e-008 -2.13293e-007 -41.6809 -68.1906 -17.3792 98.8093 33.9654 -84.5634 -34.5545 44.8085 37.2738 -3.39315e-006 4.2483e-006 -2.79141e-006 39.5681 -58.1447 20.9985 -86.9878 24.0174 78.411 39.9177 43.3219 -38.8996 4.35018e-008 -3.4035e-006 6.46143e-007 
